<mxfile host="app.diagrams.net" modified="2021-09-08T20:01:00.446Z" agent="5.0 (Windows NT 10.0; Win64; x64) AppleWebKit/537.36 (KHTML, like Gecko) Chrome/92.0.4515.159 Safari/537.36" etag="6Th6h106AeFeQLfwC79a" version="14.9.9" type="github">
  <diagram id="V4eSdaGsLNwM4Y5OTWSI" name="Page-1">
    <mxGraphModel dx="1422" dy="762" grid="1" gridSize="10" guides="1" tooltips="1" connect="1" arrows="1" fold="1" page="1" pageScale="1" pageWidth="827" pageHeight="1169" math="0" shadow="0">
      <root>
        <mxCell id="0" />
        <mxCell id="1" parent="0" />
        <mxCell id="AdJBhNed-db-71Ik7C8y-14" value="" style="edgeStyle=orthogonalEdgeStyle;rounded=0;orthogonalLoop=1;jettySize=auto;html=1;" edge="1" parent="1" source="AdJBhNed-db-71Ik7C8y-12" target="AdJBhNed-db-71Ik7C8y-13">
          <mxGeometry relative="1" as="geometry" />
        </mxCell>
        <mxCell id="AdJBhNed-db-71Ik7C8y-16" value="" style="edgeStyle=orthogonalEdgeStyle;rounded=0;orthogonalLoop=1;jettySize=auto;html=1;" edge="1" parent="1" source="AdJBhNed-db-71Ik7C8y-12" target="AdJBhNed-db-71Ik7C8y-15">
          <mxGeometry relative="1" as="geometry" />
        </mxCell>
        <mxCell id="AdJBhNed-db-71Ik7C8y-12" value="&lt;span&gt;Enviar AnÃ¡lise&lt;/span&gt;" style="ellipse;whiteSpace=wrap;html=1;fillColor=#d5e8d4;strokeColor=#82b366;" vertex="1" parent="1">
          <mxGeometry x="340" y="10" width="120" height="80" as="geometry" />
        </mxCell>
        <mxCell id="AdJBhNed-db-71Ik7C8y-25" style="edgeStyle=orthogonalEdgeStyle;rounded=0;orthogonalLoop=1;jettySize=auto;html=1;exitX=0.5;exitY=1;exitDx=0;exitDy=0;entryX=0.5;entryY=0.25;entryDx=0;entryDy=0;entryPerimeter=0;" edge="1" parent="1" source="AdJBhNed-db-71Ik7C8y-13" target="AdJBhNed-db-71Ik7C8y-24">
          <mxGeometry relative="1" as="geometry" />
        </mxCell>
        <mxCell id="AdJBhNed-db-71Ik7C8y-13" value="SRE" style="shape=trapezoid;perimeter=trapezoidPerimeter;whiteSpace=wrap;html=1;fixedSize=1;fillColor=#fff2cc;strokeColor=#d6b656;" vertex="1" parent="1">
          <mxGeometry x="20" y="20" width="120" height="60" as="geometry" />
        </mxCell>
        <mxCell id="AdJBhNed-db-71Ik7C8y-29" value="" style="edgeStyle=orthogonalEdgeStyle;rounded=0;orthogonalLoop=1;jettySize=auto;html=1;entryX=0.625;entryY=0.2;entryDx=0;entryDy=0;entryPerimeter=0;" edge="1" parent="1" source="AdJBhNed-db-71Ik7C8y-15" target="AdJBhNed-db-71Ik7C8y-28">
          <mxGeometry relative="1" as="geometry">
            <mxPoint x="750" y="180" as="targetPoint" />
            <Array as="points">
              <mxPoint x="750" y="156" />
            </Array>
          </mxGeometry>
        </mxCell>
        <mxCell id="AdJBhNed-db-71Ik7C8y-15" value="CONSELHO" style="shape=trapezoid;perimeter=trapezoidPerimeter;whiteSpace=wrap;html=1;fixedSize=1;fillColor=#dae8fc;strokeColor=#6c8ebf;" vertex="1" parent="1">
          <mxGeometry x="690" y="20" width="120" height="60" as="geometry" />
        </mxCell>
        <mxCell id="AdJBhNed-db-71Ik7C8y-20" value="" style="edgeStyle=orthogonalEdgeStyle;rounded=0;orthogonalLoop=1;jettySize=auto;html=1;exitX=0.55;exitY=0.95;exitDx=0;exitDy=0;exitPerimeter=0;" edge="1" parent="1" source="AdJBhNed-db-71Ik7C8y-24" target="AdJBhNed-db-71Ik7C8y-19">
          <mxGeometry relative="1" as="geometry">
            <mxPoint x="80" y="180" as="sourcePoint" />
            <Array as="points">
              <mxPoint x="80" y="186" />
            </Array>
          </mxGeometry>
        </mxCell>
        <mxCell id="AdJBhNed-db-71Ik7C8y-23" value="" style="edgeStyle=orthogonalEdgeStyle;rounded=0;orthogonalLoop=1;jettySize=auto;html=1;" edge="1" parent="1" source="AdJBhNed-db-71Ik7C8y-19" target="AdJBhNed-db-71Ik7C8y-22">
          <mxGeometry relative="1" as="geometry" />
        </mxCell>
        <mxCell id="AdJBhNed-db-71Ik7C8y-19" value="&lt;span style=&quot;font-size: 8px&quot;&gt;&lt;b&gt;&lt;a href=&quot;https://api.treinamento.e-docs.es.gov.br/swagger/index.html?urls.primaryName=V2.0&quot;&gt;AutuarProcesso&lt;/a&gt;&lt;/b&gt;&lt;/span&gt;" style="ellipse;shape=cloud;whiteSpace=wrap;html=1;fontColor=#333333;strokeColor=#666666;fillColor=#f5f5f5;" vertex="1" parent="1">
          <mxGeometry x="20" y="210" width="120" height="80" as="geometry" />
        </mxCell>
        <mxCell id="AdJBhNed-db-71Ik7C8y-40" value="" style="edgeStyle=orthogonalEdgeStyle;rounded=0;orthogonalLoop=1;jettySize=auto;html=1;" edge="1" parent="1" source="AdJBhNed-db-71Ik7C8y-22" target="AdJBhNed-db-71Ik7C8y-39">
          <mxGeometry relative="1" as="geometry" />
        </mxCell>
        <mxCell id="AdJBhNed-db-71Ik7C8y-22" value="&lt;span style=&quot;font-size: 8px&quot;&gt;&lt;b&gt;&lt;a href=&quot;https://api.treinamento.e-docs.es.gov.br/swagger/index.html?urls.primaryName=V2.0&quot;&gt;Despachar&lt;/a&gt;&lt;/b&gt;&lt;/span&gt;" style="ellipse;shape=cloud;whiteSpace=wrap;html=1;fontColor=#333333;strokeColor=#666666;fillColor=#f5f5f5;" vertex="1" parent="1">
          <mxGeometry x="20" y="310" width="120" height="80" as="geometry" />
        </mxCell>
        <mxCell id="AdJBhNed-db-71Ik7C8y-24" value="&lt;span style=&quot;font-size: 8px&quot;&gt;&lt;b&gt;&lt;a href=&quot;https://api.treinamento.e-docs.es.gov.br/swagger/index.html?urls.primaryName=V1.0&quot;&gt;CriarDocumento&lt;/a&gt;&lt;/b&gt;&lt;/span&gt;" style="ellipse;shape=cloud;whiteSpace=wrap;html=1;fontColor=#333333;strokeColor=#666666;fillColor=#f5f5f5;" vertex="1" parent="1">
          <mxGeometry x="20" y="110" width="120" height="80" as="geometry" />
        </mxCell>
        <mxCell id="AdJBhNed-db-71Ik7C8y-26" value="&lt;b&gt;Aguardando Analise Supervisor Escolar&lt;/b&gt;" style="shape=process;whiteSpace=wrap;html=1;backgroundOutline=1;fontColor=#000000;strokeColor=#BD7000;fillColor=#f0a30a;" vertex="1" parent="1">
          <mxGeometry x="20" y="420" width="120" height="60" as="geometry" />
        </mxCell>
        <mxCell id="AdJBhNed-db-71Ik7C8y-35" value="" style="edgeStyle=orthogonalEdgeStyle;rounded=0;orthogonalLoop=1;jettySize=auto;html=1;fillColor=#fa6800;strokeColor=#C73500;entryX=0.875;entryY=0.5;entryDx=0;entryDy=0;entryPerimeter=0;" edge="1" parent="1" source="AdJBhNed-db-71Ik7C8y-28" target="AdJBhNed-db-71Ik7C8y-24">
          <mxGeometry relative="1" as="geometry">
            <mxPoint x="414" y="150" as="targetPoint" />
          </mxGeometry>
        </mxCell>
        <mxCell id="AdJBhNed-db-71Ik7C8y-28" value="&lt;font style=&quot;font-size: 10px&quot;&gt;Selecionar Conselho&lt;/font&gt;" style="ellipse;shape=cloud;whiteSpace=wrap;html=1;strokeColor=#6c8ebf;fillColor=#dae8fc;" vertex="1" parent="1">
          <mxGeometry x="690" y="110" width="120" height="80" as="geometry" />
        </mxCell>
        <mxCell id="AdJBhNed-db-71Ik7C8y-43" value="" style="edgeStyle=orthogonalEdgeStyle;rounded=0;orthogonalLoop=1;jettySize=auto;html=1;entryX=0;entryY=0.5;entryDx=0;entryDy=0;" edge="1" parent="1" source="AdJBhNed-db-71Ik7C8y-39" target="AdJBhNed-db-71Ik7C8y-44">
          <mxGeometry relative="1" as="geometry">
            <mxPoint x="630" y="350" as="targetPoint" />
          </mxGeometry>
        </mxCell>
        <mxCell id="AdJBhNed-db-71Ik7C8y-39" value="" style="rhombus;whiteSpace=wrap;html=1;strokeColor=#ae4132;fillColor=#fad9d5;" vertex="1" parent="1">
          <mxGeometry x="390" y="310" width="80" height="80" as="geometry" />
        </mxCell>
        <mxCell id="AdJBhNed-db-71Ik7C8y-44" value="&lt;b&gt;Aguardando Supervisor Escolar&lt;/b&gt;" style="shape=process;whiteSpace=wrap;html=1;backgroundOutline=1;fontColor=#000000;strokeColor=#BD7000;fillColor=#f0a30a;" vertex="1" parent="1">
          <mxGeometry x="670" y="330" width="120" height="40" as="geometry" />
        </mxCell>
        <mxCell id="AdJBhNed-db-71Ik7C8y-45" value="&lt;b style=&quot;background-color: rgb(102 , 178 , 255)&quot;&gt;Conselho&lt;/b&gt;" style="text;html=1;strokeColor=none;fillColor=none;align=center;verticalAlign=middle;whiteSpace=wrap;rounded=0;" vertex="1" parent="1">
          <mxGeometry x="520" y="330" width="40" height="20" as="geometry" />
        </mxCell>
        <mxCell id="AdJBhNed-db-71Ik7C8y-46" value="" style="endArrow=classic;html=1;exitX=0.5;exitY=1;exitDx=0;exitDy=0;entryX=1;entryY=0.5;entryDx=0;entryDy=0;" edge="1" parent="1" source="AdJBhNed-db-71Ik7C8y-39" target="AdJBhNed-db-71Ik7C8y-26">
          <mxGeometry width="50" height="50" relative="1" as="geometry">
            <mxPoint x="390" y="590" as="sourcePoint" />
            <mxPoint x="440" y="540" as="targetPoint" />
            <Array as="points">
              <mxPoint x="430" y="450" />
            </Array>
          </mxGeometry>
        </mxCell>
        <mxCell id="AdJBhNed-db-71Ik7C8y-47" value="&lt;b&gt;SRE&lt;/b&gt;" style="text;html=1;strokeColor=#d6b656;fillColor=#fff2cc;align=center;verticalAlign=middle;whiteSpace=wrap;rounded=0;" vertex="1" parent="1">
          <mxGeometry x="399" y="400" width="30" height="10" as="geometry" />
        </mxCell>
      </root>
    </mxGraphModel>
  </diagram>
</mxfile>
